<?xml version="1.0" standalone="no"?>
<!DOCTYPE svg PUBLIC "-//W3C//DTD SVG 20010904//EN"
 "http://www.w3.org/TR/2001/REC-SVG-20010904/DTD/svg10.dtd">
<svg version="1.0" xmlns="http://www.w3.org/2000/svg"
 width="512.000000pt" height="512.000000pt" viewBox="0 0 512.000000 512.000000"
 preserveAspectRatio="xMidYMid meet">
<metadata>
Created by potrace 1.14, written by Peter Selinger 2001-2017
</metadata>
<g transform="translate(0.000000,512.000000) scale(0.100000,-0.100000)"
fill="#000000" stroke="none">
<path d="M1548 4265 c-2 -2 -28 -6 -59 -9 -31 -4 -67 -9 -80 -12 -13 -2 -48
-9 -77 -15 -110 -21 -301 -92 -422 -157 -116 -62 -94 -48 -230 -150 -164 -122
-297 -263 -405 -430 -43 -68 -145 -262 -145 -277 0 -4 -6 -21 -14 -38 -40 -89
-87 -275 -105 -417 -8 -71 -7 -366 2 -420 3 -14 8 -48 11 -75 4 -27 9 -51 11
-55 2 -4 6 -17 8 -31 21 -112 86 -288 155 -419 43 -80 150 -243 192 -290 72
-81 168 -176 225 -222 33 -27 69 -57 80 -66 11 -9 58 -40 105 -70 170 -107
384 -194 555 -225 17 -3 41 -8 55 -12 99 -22 439 -27 550 -7 36 7 79 14 95 17
113 21 283 80 412 145 l93 47 82 -42 c158 -80 327 -135 488 -161 19 -3 46 -8
60 -11 57 -12 390 -10 462 4 40 7 85 16 101 18 15 3 40 7 56 10 65 11 270 88
372 139 169 85 311 189 447 327 113 114 262 320 301 417 7 17 17 32 21 32 3 0
7 6 8 13 0 6 17 51 37 100 20 48 38 95 40 105 2 9 10 36 19 60 8 23 15 43 14
45 -1 1 4 25 11 52 27 116 39 254 36 420 -2 94 -6 181 -10 195 -3 14 -8 41
-11 60 -6 44 -9 61 -17 80 -3 8 -10 35 -16 60 -32 126 -57 193 -126 331 -158
318 -421 583 -745 752 -92 48 -267 116 -310 121 -9 1 -20 5 -25 8 -10 6 -129
29 -240 47 -33 5 -136 8 -230 6 -188 -3 -310 -21 -470 -69 -55 -16 -216 -82
-270 -110 -92 -47 -89 -47 -130 -19 -20 14 -42 26 -48 27 -7 2 -39 15 -72 30
-98 44 -251 94 -340 110 -147 27 -218 34 -362 34 -78 0 -143 -1 -145 -3z m322
-359 c75 -7 160 -21 168 -26 1 -2 7 -4 12 -5 6 -1 11 -3 13 -4 1 -2 12 -4 25
-7 13 -2 56 -18 95 -35 40 -17 77 -32 83 -33 7 -1 18 -6 25 -12 8 -5 37 -21
64 -34 28 -14 55 -28 60 -33 6 -4 31 -21 57 -38 26 -17 61 -43 78 -59 16 -15
30 -26 30 -24 0 3 35 -31 77 -73 42 -43 82 -77 88 -75 5 2 7 0 3 -4 -7 -6 48
-85 64 -92 5 -2 8 -8 8 -13 0 -5 16 -32 35 -59 19 -28 32 -50 29 -50 -4 0 0
-8 9 -18 10 -10 14 -22 10 -25 -3 -4 -1 -7 5 -7 7 0 11 -3 10 -7 -1 -5 8 -29
20 -55 46 -100 61 -138 56 -138 -2 0 1 -10 8 -22 6 -13 13 -29 15 -35 10 -40
12 -48 13 -48 2 0 3 -6 16 -125 11 -96 11 -283 0 -380 -4 -41 -9 -86 -11 -100
-1 -14 -6 -33 -10 -42 -3 -9 -8 -22 -9 -30 -2 -7 -8 -26 -14 -41 -7 -16 -12
-35 -12 -43 0 -8 -4 -14 -8 -14 -5 0 -9 -6 -9 -12 0 -7 -14 -43 -32 -81 -17
-37 -31 -69 -31 -72 -1 -11 -119 -193 -146 -224 -77 -89 -236 -241 -254 -241
-5 0 -10 -4 -10 -9 0 -5 -10 -13 -22 -17 -13 -4 -27 -12 -33 -19 -5 -7 -35
-25 -65 -41 -30 -16 -58 -33 -61 -37 -3 -5 -10 -9 -15 -9 -9 -1 -57 -20 -109
-43 -69 -32 -178 -64 -235 -70 -19 -2 -35 -4 -35 -5 0 -5 -135 -12 -220 -12
-130 0 -315 18 -332 32 -2 2 -6 3 -10 4 -56 15 -104 32 -158 56 -36 16 -65 26
-65 22 0 -4 -4 -2 -8 4 -4 5 -31 23 -61 38 -78 40 -93 49 -115 69 -11 9 -24
17 -28 17 -5 0 -19 9 -31 20 -12 11 -35 32 -52 46 -57 49 -140 131 -175 173
-19 23 -45 54 -57 68 -12 14 -27 38 -35 52 -7 14 -15 28 -18 31 -3 3 -12 19
-20 35 -8 17 -17 32 -20 35 -7 7 -55 103 -55 110 0 3 -8 26 -19 50 -38 91 -53
134 -61 175 -3 17 -8 41 -10 55 -22 105 -22 405 0 520 2 14 7 41 11 60 3 19
10 37 15 38 5 2 7 8 4 13 -4 5 1 26 10 46 10 21 21 47 25 58 34 86 70 161 100
210 14 22 23 42 22 44 -2 2 0 7 5 10 4 3 21 25 36 47 15 23 42 57 58 75 52 59
149 159 154 159 4 0 54 43 96 83 11 9 19 14 19 11 0 -4 15 5 33 18 39 30 99
63 110 60 4 -1 7 3 7 9 0 5 5 7 10 4 6 -3 10 -2 10 2 0 9 72 43 90 43 6 0 10
5 10 12 0 6 3 9 6 5 3 -3 26 3 50 13 24 11 44 17 44 13 0 -3 6 -1 13 4 10 9
38 18 82 28 31 8 88 15 150 21 39 3 71 7 72 7 3 4 202 -2 253 -7z"/>
<path d="M1749 3163 c-1 -5 -3 -17 -5 -28 -2 -11 -8 -40 -14 -65 -12 -48 -18
-69 -24 -98 -2 -9 -10 -37 -17 -62 -7 -25 -12 -48 -11 -51 0 -3 -8 -39 -18
-79 -10 -41 -17 -77 -14 -82 3 -4 1 -8 -4 -8 -5 0 -9 -6 -10 -12 -1 -20 -10
-73 -13 -75 -1 -2 -3 -7 -4 -13 -1 -5 -3 -11 -5 -12 -2 -4 -6 -22 -15 -68 -9
-48 -26 -122 -32 -140 -3 -8 -7 -24 -8 -35 -2 -11 -10 -47 -19 -80 -8 -33 -17
-73 -20 -90 l-5 -30 52 2 c29 1 63 2 77 2 17 1 26 7 27 19 1 9 13 67 28 127
15 61 28 119 31 130 3 17 11 53 20 88 1 4 2 8 3 10 2 1 5 13 7 27 10 52 13 65
14 65 1 0 3 7 5 15 2 8 6 24 9 35 2 11 11 52 20 90 8 39 20 86 26 105 10 33
19 79 26 125 1 11 3 21 4 23 2 1 4 7 5 12 1 6 4 11 5 13 1 1 4 11 6 22 1 11 5
30 8 43 3 12 8 31 10 42 3 11 8 25 11 30 4 6 -23 10 -74 10 -45 0 -82 -3 -82
-7z"/>
<path d="M1257 2776 c-25 -28 -66 -73 -91 -100 -39 -41 -43 -51 -33 -67 6 -10
17 -19 24 -19 7 0 13 -5 13 -11 0 -6 16 -26 35 -45 20 -19 33 -34 31 -34 -2 0
12 -16 33 -37 35 -35 39 -36 111 -38 41 0 85 1 98 3 22 4 21 7 -21 48 -25 24
-42 46 -39 49 3 3 -2 5 -11 5 -9 0 -17 7 -17 16 0 8 -4 12 -10 9 -5 -3 -10 -1
-10 6 0 6 -11 22 -25 35 -29 27 -24 50 17 78 12 9 19 16 15 16 -3 0 14 20 38
45 25 24 45 49 45 55 0 6 4 9 8 6 4 -2 14 4 20 15 12 19 10 20 -86 18 l-99 -1
-46 -52z"/>
<path d="M1931 2803 c43 -48 63 -70 110 -120 36 -39 45 -53 37 -66 -8 -16 -56
-68 -140 -154 -18 -18 -28 -33 -23 -34 6 -1 49 -2 98 -3 l87 -2 83 89 c45 49
87 95 94 102 9 9 2 22 -30 57 -23 24 -65 70 -94 101 l-52 57 -97 0 -97 0 24
-27z"/>
</g>
</svg>
